<!-- Generated by IcoMoon.io -->
<svg version="1.1" xmlns="http://www.w3.org/2000/svg" width="1270" height="1024" viewBox="0 0 1270 1024">
<g id="icomoon-ignore">
</g>
<path fill="#2196f3" d="M1203.397 243.972l-132.043 134.685c-10.273 10.459-16.028 24.541-16.024 39.211v195.637c-0.004 14.67 5.751 28.752 16.024 39.211l132.043 134.625c4.606 4.694 10.504 7.909 16.943 9.234 6.439 1.327 13.128 0.705 19.212-1.786s11.291-6.74 14.954-12.202c3.666-5.464 5.622-11.895 5.624-18.477v-496.908c-0.002-6.582-1.958-13.013-5.624-18.477-3.664-5.462-8.87-9.71-14.954-12.202-6.085-2.49-12.773-3.113-19.212-1.786s-12.337 4.54-16.943 9.234z"></path>
<path fill="#2196f3" d="M512 1024c-282.769 0-512-229.231-512-512s229.231-512 512-512c282.769 0 512 229.231 512 512s-229.231 512-512 512zM512.004 775.315c145.424 0 263.313-117.891 263.313-263.315s-117.889-263.313-263.313-263.313c-145.424 0-263.315 117.889-263.315 263.313s117.891 263.315 263.315 263.315z"></path>
<path fill="#2196f3" d="M629.031 515.658l-170.058 98.183v-196.364l170.058 98.181z"></path>
</svg>
